<svg width="32" height="32" viewBox="0 0 32 32" fill="none" xmlns="http://www.w3.org/2000/svg">
<g clip-path="url(#clip0_1746_15168)">
<path d="M27.4111 15.5864C27.4111 21.803 22.4568 31.5431 16.3451 31.5431C10.2333 31.5431 5.27956 21.803 5.27956 15.5864C5.27956 9.36994 10.2339 6.87878 16.3451 6.87878C22.4563 6.87878 27.4111 9.3711 27.4111 15.5864Z" fill="white"/>
<path d="M16.3449 32.0004C9.9842 32.0004 4.82208 22.0688 4.82208 15.5871C4.82208 9.76314 9.02207 6.42078 16.3449 6.42078C23.6679 6.42078 27.8684 9.76314 27.8684 15.5866C27.8684 22.0682 22.7059 32.0004 16.3449 32.0004ZM16.3449 7.33694C13.1552 7.33694 5.73669 8.14084 5.73669 15.5866C5.73669 21.5654 10.5916 31.0856 16.3449 31.0856C22.0983 31.0856 26.9536 21.5654 26.9536 15.5866C26.9536 8.14026 19.5347 7.33635 16.3449 7.33635V7.33694Z" fill="#144A8F"/>
<path d="M6.86593 14.5497C6.86593 14.5497 5.77783 14.7236 5.24305 14.5017C4.52376 14.2026 5.69128 13.3053 5.69128 13.3053L6.86593 14.5497Z" fill="#2494D1"/>
<path d="M19.0063 13.3893C19.0063 14.7753 18.0949 15.2379 16.3763 15.8908C14.4319 15.8908 10.503 14.7753 10.503 13.3893C10.503 12.0032 14.792 10.8794 16.7364 10.8794C18.6808 10.8794 19.0063 12.0042 19.0063 13.3893Z" fill="#2494D1"/>
<path d="M18.016 25.8665C18.016 25.8665 17.4113 23.3501 19.3056 22.5009C18.9467 23.4697 18.2083 25.5714 18.6708 26.3138C19.1333 27.0561 18.016 25.8665 18.016 25.8665Z" fill="#2494D1"/>
<path d="M16.3449 32.0004C9.9842 32.0004 4.82208 22.0688 4.82208 15.5871C4.82208 9.76314 9.02207 6.42078 16.3449 6.42078C23.6679 6.42078 27.8684 9.76314 27.8684 15.5866C27.8684 22.0682 22.7059 32.0004 16.3449 32.0004ZM16.3449 7.33694C13.1552 7.33694 5.73669 8.14084 5.73669 15.5866C5.73669 21.5654 10.5916 31.0856 16.3449 31.0856C22.0983 31.0856 26.9536 21.5654 26.9536 15.5866C26.9536 8.14026 19.5347 7.33635 16.3449 7.33635V7.33694Z" fill="#144A8F"/>
<path d="M12.8038 17.7618C12.8038 17.7618 13.4221 20.4 17.5553 20.7911C17.8324 20.8175 17.9961 20.4771 17.8473 20.242C17.6529 19.9348 17.0329 19.4354 17.0229 19.0267C17.9404 19.133 19.4288 19.5774 20.2107 19.1538C20.4503 19.0244 20.436 18.6758 20.1876 18.5642C19.6799 18.3356 19.7045 17.4799 19.4712 17.043" fill="#2494D1"/>
<path d="M12.9266 16.9246C12.9266 16.9246 13.2823 19.8275 18.43 19.4524C18.1243 19.056 17.7993 18.632 17.7856 18.0546C18.8071 18.1727 20.0979 18.2004 20.7476 17.4388C20.1408 17.332 19.4613 16.8644 19.1788 16.3376" fill="white"/>
<path d="M17.5369 19.9434C12.8923 19.9434 12.4885 17.1078 12.4729 16.98C12.4653 16.9204 12.4695 16.8598 12.4853 16.8018C12.501 16.7438 12.5281 16.6896 12.5649 16.642C12.6017 16.5944 12.6474 16.5546 12.6996 16.5248C12.7518 16.4949 12.8093 16.4756 12.8689 16.468C12.9286 16.4604 12.9891 16.4646 13.0471 16.4804C13.1051 16.4962 13.1594 16.5232 13.207 16.56C13.2545 16.5968 13.2943 16.6425 13.3242 16.6948C13.354 16.7469 13.3733 16.8045 13.3809 16.8641C13.396 16.9665 13.7503 19.0278 17.5391 19.0278H17.5917C17.4457 18.7516 17.3379 18.4352 17.3293 18.0644C17.3279 17.999 17.3404 17.9341 17.3661 17.874C17.3919 17.8138 17.4301 17.76 17.4784 17.7158C17.5267 17.6717 17.5839 17.6385 17.6461 17.6184C17.7083 17.5982 17.7741 17.5917 17.8391 17.5992C18.6632 17.6957 19.2983 17.6733 19.756 17.5333C19.34 17.2821 18.9797 16.9314 18.7767 16.5532C18.7193 16.4464 18.7068 16.321 18.7419 16.2049C18.7769 16.0888 18.8567 15.9913 18.9635 15.934C19.0704 15.8766 19.1957 15.8641 19.3117 15.8992C19.4279 15.9342 19.5253 16.014 19.5827 16.1208C19.794 16.5152 20.3527 16.9038 20.8277 16.9876C20.9071 17.0014 20.9813 17.0362 21.0429 17.0881C21.1045 17.1401 21.1513 17.2073 21.1787 17.2832C21.2059 17.359 21.2127 17.4406 21.1981 17.52C21.1837 17.5993 21.1485 17.6733 21.0963 17.7346C20.4424 18.5012 19.3403 18.6152 18.3813 18.5638C18.4855 18.7736 18.6369 18.9696 18.7931 19.1725C18.8433 19.238 18.8751 19.3158 18.8848 19.3977C18.8944 19.4797 18.8819 19.5628 18.8481 19.6381C18.8145 19.7134 18.7611 19.7782 18.6936 19.8257C18.626 19.8732 18.5469 19.9014 18.4647 19.9077C18.1372 19.9324 17.8284 19.9434 17.5369 19.9434Z" fill="#144A8F"/>
<path d="M19.7636 12.8807C19.7636 13.7843 18.2335 15.449 16.3451 15.449C14.4568 15.449 12.9266 13.7843 12.9266 12.8807C12.9266 11.9771 14.2951 0.457886 16.1832 0.457886C18.0713 0.457886 19.7636 11.9777 19.7636 12.8807Z" fill="white"/>
<path d="M16.3452 15.9069C14.2432 15.9069 12.4688 14.0479 12.4688 12.8808C12.4688 12.7519 13.6241 0 16.1829 0C18.7731 0 20.2208 12.7513 20.2208 12.8808C20.2209 14.0479 18.4473 15.9069 16.3452 15.9069ZM16.1835 0.914424C15.0108 0.914424 13.3841 11.0799 13.3841 12.8806C13.3841 13.4928 14.6655 14.9915 16.3452 14.9915C18.0248 14.9915 19.3064 13.4928 19.3064 12.8806C19.3064 12.4727 18.8853 9.38361 18.2347 6.42763C17.0535 1.06473 16.1917 0.914424 16.1835 0.914424Z" fill="#144A8F"/>
<path d="M18.4 29.0835C18.4479 29.3269 18.0503 29.0712 17.6379 29.1523C17.2255 29.2332 16.9545 29.622 16.9067 29.3785C16.8588 29.1351 17.106 28.6307 17.5185 28.5491C17.9309 28.4675 18.352 28.8399 18.4 29.0835Z" fill="#144A8F"/>
<path d="M14.328 29.0835C14.2801 29.3269 14.6777 29.0712 15.0901 29.1523C15.5027 29.2332 15.7736 29.622 15.8215 29.3785C15.8693 29.1351 15.6221 28.6307 15.2096 28.5491C14.7971 28.4675 14.3759 28.8399 14.328 29.0835Z" fill="#144A8F"/>
<path d="M9.97807 9.14479C9.97807 9.14479 7.27536 7.80631 4.77649 7.96628C3.88949 10.5345 4.90651 13.1034 6.83273 14.1044" fill="white"/>
<path d="M6.83235 14.5618C6.75908 14.5618 6.68691 14.5441 6.62195 14.5102C4.40341 13.3576 3.42445 10.4801 4.34429 7.81724C4.37367 7.73198 4.4276 7.65732 4.49932 7.60265C4.57103 7.54798 4.65732 7.51577 4.74731 7.51005C7.34124 7.33772 10.066 8.67697 10.1811 8.73397C10.2875 8.78914 10.3679 8.88385 10.4052 8.99773C10.4425 9.11161 10.4336 9.23557 10.3805 9.34296C10.3273 9.45036 10.2342 9.53262 10.121 9.57206C10.0079 9.6115 9.88379 9.60498 9.7754 9.5539C9.75067 9.54173 7.37255 8.38562 5.11633 8.41093C4.50736 10.561 5.30451 12.7948 7.04371 13.6988C7.13457 13.7461 7.20693 13.8225 7.24923 13.9157C7.29151 14.009 7.30125 14.1137 7.27692 14.2132C7.25259 14.3126 7.19556 14.4012 7.11499 14.4644C7.03441 14.5276 6.93495 14.5618 6.83255 14.5618H6.83235Z" fill="#144A8F"/>
<path d="M5.65536 9.68103C5.59431 10.0632 5.67256 11.6646 7.09645 12.7851C7.10829 12.7946 7.12288 12.7999 7.13801 12.8004C7.15315 12.8008 7.16801 12.7964 7.1804 12.7877C7.1928 12.779 7.20204 12.7665 7.20676 12.7521C7.21148 12.7377 7.21141 12.7222 7.20657 12.7078C7.09065 12.3499 7.04584 12.1283 7.03153 11.9397C7.03032 11.9242 7.03351 11.9088 7.04073 11.8951C7.04796 11.8814 7.05892 11.87 7.07235 11.8622C7.08579 11.8545 7.10113 11.8508 7.11661 11.8514C7.13209 11.852 7.14708 11.8571 7.15983 11.8659C7.29024 11.954 7.45059 12.0156 7.76107 11.9507C7.78429 11.9458 7.80603 11.9354 7.82448 11.9204C7.84293 11.9054 7.85759 11.8863 7.86725 11.8646C7.87691 11.8429 7.88131 11.8193 7.88008 11.7956C7.87885 11.7718 7.87203 11.7487 7.86017 11.7282C7.80628 11.6346 7.73847 11.5255 7.71701 11.3823C7.71404 11.3615 7.71571 11.3402 7.72188 11.3201C7.72805 11.2999 7.73859 11.2814 7.75273 11.2658C7.76688 11.2502 7.78429 11.2379 7.80373 11.2298C7.82317 11.2217 7.84416 11.218 7.8652 11.2189C8.40752 11.2382 8.83121 11.3052 9.17028 11.0624" fill="#2494D1"/>
<path d="M8.9798 10.7213C8.9798 10.7213 7.63666 10.0565 6.03386 9.78406L8.9798 10.7213Z" fill="white"/>
<path d="M8.9792 11.1785C8.90916 11.1785 8.84007 11.1623 8.77731 11.1312C8.76436 11.1248 7.47029 10.4921 5.95655 10.2351C5.89636 10.2261 5.83857 10.2052 5.78657 10.1736C5.73457 10.142 5.6894 10.1004 5.65369 10.0511C5.618 10.0018 5.59249 9.94589 5.57865 9.88664C5.56483 9.82737 5.56296 9.76596 5.57317 9.70597C5.58337 9.64597 5.60544 9.58863 5.63808 9.53728C5.67073 9.48592 5.71329 9.44159 5.76328 9.40689C5.81327 9.37219 5.86967 9.3478 5.9292 9.33516C5.98872 9.32253 6.05017 9.32189 6.10995 9.33331C7.75971 9.61383 9.12391 10.2831 9.18187 10.3115C9.27433 10.3573 9.34859 10.433 9.39256 10.5263C9.43655 10.6197 9.44765 10.7251 9.42411 10.8256C9.40056 10.926 9.34373 11.0156 9.26285 11.0797C9.18197 11.1437 9.0818 11.1786 8.97863 11.1785H8.9792Z" fill="#144A8F"/>
<path d="M22.7124 9.1448C22.7124 9.1448 25.4149 7.80726 27.914 7.96742C28.8009 10.5357 27.7839 13.1047 25.8577 14.1057" fill="white"/>
<path d="M25.8577 14.5619C25.7553 14.5619 25.6559 14.5276 25.5753 14.4644C25.4947 14.4012 25.4377 14.3127 25.4133 14.2132C25.3891 14.1137 25.3988 14.0091 25.4411 13.9157C25.4833 13.8224 25.5557 13.7461 25.6465 13.6988C27.3853 12.7949 28.1833 10.5611 27.5741 8.41096C25.3065 8.37425 22.9396 9.54157 22.9148 9.55393C22.8061 9.60773 22.6804 9.61613 22.5655 9.57729C22.4505 9.53845 22.3559 9.45556 22.302 9.34682C22.2481 9.23809 22.2397 9.11244 22.2787 8.99752C22.3175 8.88258 22.4004 8.7878 22.5091 8.734C22.6239 8.67738 25.3516 7.34296 27.9429 7.51008C28.0329 7.51585 28.1192 7.54809 28.1909 7.60274C28.2627 7.6574 28.3165 7.73202 28.346 7.81726C29.2655 10.4801 28.2863 13.3576 26.0681 14.5103C26.0032 14.5441 25.9309 14.5619 25.8577 14.5619Z" fill="#144A8F"/>
<path d="M27.0351 9.68103C27.0961 10.0632 27.0179 11.6646 25.594 12.7851C25.5821 12.7946 25.5676 12.7999 25.5524 12.8004C25.5373 12.8008 25.5224 12.7964 25.51 12.7877C25.4976 12.779 25.4884 12.7665 25.4836 12.7521C25.4789 12.7377 25.4791 12.7222 25.4839 12.7078C25.5997 12.3499 25.6445 12.1283 25.6589 11.9397C25.6601 11.9242 25.6569 11.9088 25.6497 11.8951C25.6425 11.8814 25.6315 11.87 25.6181 11.8622C25.6047 11.8545 25.5893 11.8508 25.5739 11.8514C25.5583 11.852 25.5433 11.8571 25.5305 11.8659C25.4001 11.954 25.2408 12.0156 24.9293 11.9507C24.9061 11.9458 24.8844 11.9354 24.866 11.9204C24.8475 11.9054 24.8328 11.8863 24.8232 11.8646C24.8135 11.8429 24.8091 11.8193 24.8104 11.7956C24.8116 11.7718 24.8184 11.7487 24.8303 11.7282C24.8841 11.6346 24.9517 11.5255 24.9735 11.3823C24.9764 11.3615 24.9747 11.3402 24.9685 11.3201C24.9624 11.2999 24.9519 11.2814 24.9377 11.2658C24.9236 11.2502 24.9061 11.2379 24.8867 11.2298C24.8672 11.2217 24.8463 11.218 24.8252 11.2189C24.2829 11.2382 23.8592 11.3052 23.5201 11.0624" fill="#2494D1"/>
<path d="M23.7107 10.7213C23.7107 10.7213 25.0535 10.0565 26.6564 9.78406L23.7107 10.7213Z" fill="white"/>
<path d="M23.7112 11.1784C23.608 11.1785 23.5079 11.1437 23.4269 11.0796C23.346 11.0156 23.2892 10.926 23.2656 10.8256C23.242 10.7251 23.2531 10.6196 23.2971 10.5262C23.3411 10.4329 23.4153 10.3571 23.5077 10.3113C23.5657 10.2829 24.93 9.61366 26.5797 9.33312C26.6993 9.3128 26.8221 9.34083 26.9211 9.41103C27.02 9.48123 27.0871 9.58786 27.1073 9.70746C27.1277 9.82704 27.0996 9.94982 27.0295 10.0488C26.9592 10.1477 26.8527 10.2147 26.7331 10.235C25.2199 10.492 23.9257 11.1247 23.9121 11.1311C23.8497 11.162 23.7809 11.1782 23.7112 11.1784Z" fill="#144A8F"/>
<path d="M25.3979 25.0298C24.2337 27.5486 21.9415 28.967 20.2781 28.1984C18.6149 27.4296 18.2095 24.7638 19.3735 22.2453C20.5375 19.7266 22.8303 18.308 24.4932 19.0768C26.156 19.8454 26.5604 22.511 25.3973 25.0298" fill="white"/>
<path d="M21.2537 28.8664C20.8507 28.8683 20.452 28.7818 20.0859 28.6132C19.1373 28.175 18.5075 27.2279 18.3129 25.947C18.1287 24.7355 18.358 23.3523 18.9583 22.0536C20.2269 19.3102 22.7979 17.7888 24.6856 18.6619C26.5735 19.5351 27.0815 22.4784 25.8135 25.2222C25.2129 26.5207 24.3085 27.5908 23.266 28.236C22.5893 28.6542 21.9027 28.8664 21.2537 28.8664ZM23.5319 19.3282C22.218 19.3282 20.65 20.5734 19.7885 22.4371C19.2625 23.5751 19.0595 24.7727 19.2172 25.8095C19.3643 26.7768 19.8089 27.4782 20.4695 27.783C21.1301 28.0879 21.9521 27.9734 22.7847 27.4583C23.6764 26.9059 24.4571 25.9756 24.9831 24.8376C26.0215 22.591 25.7099 20.1428 24.302 19.4919C24.0603 19.3818 23.7975 19.3259 23.5319 19.3282Z" fill="#144A8F"/>
<path d="M23.0584 23.6326C23.0585 24.0227 22.9428 24.404 22.7261 24.7284C22.5093 25.053 22.2013 25.3058 21.8409 25.4551C21.4804 25.6044 21.0839 25.6436 20.7012 25.5675C20.3185 25.4914 19.9671 25.3036 19.6911 25.0278C19.4152 24.7519 19.2273 24.4004 19.1512 24.0178C19.0751 23.6351 19.114 23.2384 19.2633 22.878C19.4125 22.5175 19.6653 22.2094 19.9897 21.9926C20.3141 21.7758 20.6955 21.66 21.0856 21.66C21.6088 21.66 22.1104 21.8679 22.4803 22.2378C22.8501 22.6078 23.058 23.1094 23.058 23.6326" fill="#144A8F"/>
<path d="M7.29236 25.0298C8.4566 27.5486 10.7489 28.967 12.4122 28.1984C14.0755 27.4296 14.4812 24.7638 13.317 22.2453C12.1527 19.7266 9.86001 18.308 8.19713 19.0768C6.53424 19.8454 6.12987 22.511 7.29295 25.0298" fill="white"/>
<path d="M11.4367 28.8664C10.7879 28.8664 10.1009 28.6538 9.42434 28.2356C8.3822 27.5904 7.47744 26.5202 6.87736 25.2217C5.60899 22.4782 6.11479 19.5354 8.00469 18.6617C9.89459 17.7878 12.464 19.3102 13.7324 22.0533C14.3324 23.352 14.5617 24.735 14.3776 25.9466C14.1827 27.2278 13.5531 28.1749 12.6041 28.6128C12.2381 28.7816 11.8397 28.8681 11.4367 28.8664ZM9.15868 19.3282C8.89304 19.326 8.63013 19.3818 8.38839 19.492C6.98091 20.1429 6.6689 22.5909 7.70755 24.8377C8.23324 25.9756 9.01418 26.9049 9.9056 27.4582C10.7381 27.9722 11.5598 28.0884 12.2203 27.7829C12.8809 27.4776 13.3262 26.7768 13.4735 25.8094C13.6309 24.7728 13.428 23.575 12.902 22.4372C12.0405 20.574 10.4719 19.3282 9.15868 19.3282Z" fill="#144A8F"/>
<path d="M7.29236 25.0298C8.4566 27.5486 10.7489 28.967 12.4122 28.1984C14.0755 27.4296 14.4812 24.7638 13.317 22.2453C12.1527 19.7266 9.86001 18.308 8.19713 19.0768C6.53424 19.8454 6.12987 22.511 7.29295 25.0298" fill="white"/>
<path d="M11.4367 28.8664C10.7879 28.8664 10.1009 28.6538 9.42434 28.2356C8.3822 27.5904 7.47744 26.5202 6.87736 25.2217C5.60899 22.4782 6.11479 19.5354 8.00469 18.6617C9.89459 17.7878 12.464 19.3102 13.7324 22.0533C14.3324 23.352 14.5617 24.735 14.3776 25.9466C14.1827 27.2278 13.5531 28.1749 12.6041 28.6128C12.2381 28.7816 11.8397 28.8681 11.4367 28.8664ZM9.15868 19.3282C8.89304 19.326 8.63013 19.3818 8.38839 19.492C6.98091 20.1429 6.6689 22.5909 7.70755 24.8377C8.23324 25.9756 9.01418 26.9049 9.9056 27.4582C10.7381 27.9722 11.5598 28.0884 12.2203 27.7829C12.8809 27.4776 13.3262 26.7768 13.4735 25.8094C13.6309 24.7728 13.428 23.575 12.902 22.4372C12.0405 20.574 10.4719 19.3282 9.15868 19.3282Z" fill="#144A8F"/>
<path d="M9.63204 23.6326C9.632 24.0227 9.74766 24.404 9.96439 24.7286C10.1811 25.053 10.4892 25.3058 10.8496 25.4551C11.21 25.6044 11.6067 25.6436 11.9893 25.5675C12.372 25.4914 12.7235 25.3035 12.9994 25.0276C13.2752 24.7518 13.4631 24.4003 13.5392 24.0176C13.6153 23.635 13.5764 23.2383 13.4271 22.8778C13.2777 22.5174 13.0249 22.2092 12.7005 21.9924C12.3761 21.7758 11.9948 21.66 11.6046 21.66C11.0815 21.66 10.5798 21.8679 10.2099 22.2378C9.83994 22.6076 9.6321 23.1094 9.63204 23.6326Z" fill="#144A8F"/>
<path d="M13.5861 23.6324C13.5861 24.0226 13.4704 24.4039 13.2537 24.7282C13.037 25.0526 12.7289 25.3054 12.3685 25.4547C12.0081 25.6039 11.6115 25.643 11.2289 25.5668C10.8463 25.4908 10.4949 25.303 10.219 25.0271C9.94317 24.7512 9.75532 24.3998 9.67921 24.0172C9.60311 23.6346 9.64217 23.238 9.79145 22.8776C9.94075 22.5172 10.1935 22.2091 10.5179 21.9924C10.8423 21.7758 11.2236 21.66 11.6137 21.66C12.1368 21.66 12.6385 21.8678 13.0084 22.2378C13.3783 22.6076 13.5861 23.1092 13.5861 23.6324Z" fill="#144A8F"/>
<path d="M13.5743 22.5932C13.5744 22.8205 13.5071 23.0429 13.3808 23.232C13.2545 23.421 13.0749 23.5685 12.8649 23.6556C12.6548 23.7426 12.4236 23.7654 12.2006 23.721C11.9776 23.6768 11.7727 23.5672 11.6119 23.4064C11.4511 23.2456 11.3416 23.0408 11.2973 22.8177C11.2529 22.5946 11.2757 22.3636 11.3628 22.1534C11.4498 21.9434 11.5972 21.7638 11.7863 21.6376C11.9754 21.5113 12.1977 21.444 12.4251 21.444C12.7299 21.444 13.0222 21.5652 13.2377 21.7806C13.4532 21.9961 13.5743 22.2884 13.5743 22.5932Z" fill="white"/>
<path d="M13.9565 28.0246C13.3663 28.7609 13.4296 29.8288 14.1124 30.48C14.5932 30.9389 15.6461 31.2097 16.1852 31.257C16.1852 31.257 12.2534 30.9978 10.93 29.0588C11.4976 28.468 12.9872 27.6641 13.436 27.0969C13.8848 26.5296 14.8227 25.4289 15.4492 25.9801" fill="#2494D1"/>
<path d="M14.8224 25.8344C14.8224 25.8344 15.5736 21.5562 12.3119 20.3312C13.014 21.9154 14.4695 25.3598 13.7724 26.651C13.0753 27.9422 14.8224 25.834 14.8224 25.834" fill="#2494D1"/>
<path d="M16.3435 32.0007C14.1504 32.0007 11.9447 30.8274 9.96435 28.6074C9.92924 28.5682 9.9012 28.5233 9.88147 28.4745C8.7041 27.9099 7.587 26.7575 6.87699 25.2227C5.60939 22.4793 6.115 19.5354 8.00471 18.6625C8.95332 18.2235 10.0832 18.3574 11.1848 19.0395C12.2281 19.6847 13.1319 20.755 13.7321 22.0535C14.3212 23.3287 14.5273 24.6455 14.39 25.7791C15.512 24.7315 17.278 24.7551 18.3729 25.849L20.0012 27.4683C20.0437 27.5106 20.0776 27.561 20.1008 27.6163C20.124 27.6718 20.136 27.7313 20.1363 27.7913C20.1364 27.8514 20.1248 27.9109 20.102 27.9665C20.0792 28.0221 20.0456 28.0726 20.0033 28.1151C19.9609 28.1578 19.9107 28.1917 19.8552 28.2147C19.7999 28.2379 19.7404 28.2499 19.6803 28.2502C19.6203 28.2503 19.5608 28.2387 19.5052 28.2159C19.4496 28.1931 19.3991 28.1597 19.3565 28.1173L17.7271 26.4969C17.3603 26.1311 16.8636 25.9257 16.3456 25.9257C15.8277 25.9257 15.3309 26.1311 14.9643 26.4969L13.3713 28.0837C13.3571 28.0975 13.342 28.1105 13.3261 28.1223C12.8314 28.5961 12.1731 28.8607 11.4881 28.8611C12.7233 30.0118 14.3976 31.0869 16.3433 31.0869C16.4645 31.0869 16.5808 31.135 16.6665 31.2207C16.7523 31.3065 16.8004 31.4227 16.8004 31.5439C16.8004 31.6651 16.7523 31.7814 16.6665 31.8671C16.5808 31.9529 16.4645 32.0011 16.3433 32.0011L16.3435 32.0007ZM7.70738 24.8389C8.76438 27.1242 10.7868 28.4461 12.2209 27.7842C13.6287 27.1329 13.9404 24.6845 12.9018 22.4377C12.3761 21.2999 11.5954 20.3693 10.7037 19.8174C9.87123 19.3023 9.04878 19.1878 8.3884 19.4926C6.98094 20.1431 6.66891 22.5914 7.70738 24.8389Z" fill="#144A8F"/>
<path d="M14.6364 12.3023C14.6364 12.3023 16.5528 13.9148 17.8629 13.5606C18.6551 13.3464 17.8184 15.0506 14.7467 14.6232C11.5489 14.1772 13.2065 10.9137 13.2065 10.9137L14.6364 12.3023Z" fill="#EB2126"/>
<path d="M15.0559 8.96225C15.2755 9.48138 16.9467 10.2677 18.1084 10.2012C18.1852 10.1957 18.2617 10.2162 18.3255 10.2594C18.3892 10.3026 18.4367 10.3659 18.4601 10.4393C18.7387 11.3402 18.7473 12.3765 18.514 12.7929C18.2911 13.1914 13.1852 12.2519 13.1638 10.1023C13.1423 7.95276 14.0023 7.90833 14.0023 7.90833L15.0559 8.96225Z" fill="#EB2126"/>
<path d="M15.0899 5.36757C15.2621 5.86313 16.5688 6.65119 17.4483 6.73041C17.5519 6.73987 17.6505 6.77934 17.7321 6.84399C17.8137 6.90863 17.8747 6.99565 17.9075 7.09439C18.1355 7.76789 18.2043 8.49471 18.3132 9.14561C18.3815 9.55306 13.5539 8.65719 13.5356 6.50687C13.5175 4.35655 14.224 4.31482 14.224 4.31482L15.0899 5.36757Z" fill="#EB2126"/>
<path d="M17.9588 13.2235C16.4988 13.2235 15.1891 12.6112 14.7097 12.3577C13.8191 11.8863 12.8343 11.1338 12.7406 10.4351C12.7327 10.3756 12.7365 10.3151 12.7519 10.257C12.7673 10.199 12.794 10.1445 12.8305 10.0968C12.9041 10.0003 13.013 9.93712 13.1332 9.92101C13.2535 9.90489 13.3752 9.9372 13.4716 10.0108C13.568 10.0845 13.6312 10.1934 13.6473 10.3136C13.6787 10.4929 14.1985 11.0773 15.2592 11.6121C15.8388 11.9041 17.8575 12.7924 19.5143 11.9626C19.6225 11.9102 19.7471 11.9026 19.8609 11.9413C19.9747 11.9801 20.0687 12.062 20.1225 12.1695C20.1764 12.277 20.1857 12.4014 20.1487 12.5158C20.1115 12.6301 20.0308 12.7253 19.9241 12.7806C19.2789 13.1035 18.6041 13.2235 17.9588 13.2235ZM17.6916 9.78828C16.8099 9.78828 15.8508 9.53847 14.9235 9.04773C14.152 8.63968 13.2984 7.98299 13.2153 7.36396C13.2014 7.24509 13.2345 7.12548 13.3077 7.03079C13.3809 6.93608 13.4883 6.87383 13.6068 6.85737C13.7253 6.84092 13.8456 6.87157 13.9419 6.94276C14.038 7.01395 14.1025 7.12 14.1215 7.23817C14.1636 7.39275 14.6624 7.93719 15.6655 8.39392C16.2531 8.66171 17.7543 9.21679 19.0029 8.58984C19.1111 8.53748 19.2356 8.52983 19.3495 8.56856C19.4633 8.60728 19.5573 8.68927 19.6112 8.79677C19.6651 8.90428 19.6744 9.02867 19.6372 9.14303C19.6001 9.25739 19.5195 9.35252 19.4127 9.40787C18.904 9.66231 18.3172 9.78828 17.6916 9.78828Z" fill="#144A8F"/>
<path d="M17.4508 4.72047C17.4736 4.8148 17.4587 4.91427 17.4093 4.99783C17.36 5.08137 17.2801 5.14245 17.1865 5.16811C16.9689 5.22704 16.6552 5.35976 16.082 5.37348C14.7829 5.4044 14.2571 3.82673 14.2571 3.82673C14.2571 3.82673 14.7643 0.79814 15.9047 0.828473C16.2911 0.838905 17.1579 3.50061 17.4503 4.72047" fill="#EB2126"/>
<path d="M16.3452 15.9069C14.2432 15.9069 12.4688 14.0479 12.4688 12.8808C12.4688 12.8019 12.9014 7.99932 13.8225 4.28212C13.8271 4.23973 13.8375 4.19817 13.8535 4.15867C14.4348 1.85609 15.2059 0 16.1829 0C18.7731 0 20.2208 12.7513 20.2208 12.8808C20.2209 14.0479 18.4473 15.9069 16.3452 15.9069ZM14.5277 5.33875C13.8832 8.31945 13.3841 11.8829 13.3841 12.8802C13.3841 13.4924 14.6655 14.9911 16.3452 14.9911C18.0248 14.9911 19.3064 13.4924 19.3064 12.8802C19.3064 12.4723 18.8853 9.38323 18.2347 6.42724C18.2205 6.36271 18.2064 6.29857 18.1921 6.23577C17.2988 6.47013 16.2169 6.30475 15.1883 5.76069C14.9572 5.63788 14.7363 5.49679 14.5277 5.33875ZM14.7627 4.30685C14.8951 4.48556 15.3483 4.87757 16.0747 5.16177C16.5015 5.32908 17.2677 5.54817 17.9843 5.34705C16.9335 1.04348 16.1912 0.914424 16.1835 0.914424C15.7373 0.914424 15.2256 2.38565 14.7627 4.30743V4.30685Z" fill="#144A8F"/>
<path d="M23.0467 22.5932C23.0467 22.8205 22.9793 23.0428 22.8531 23.232C22.7268 23.421 22.5473 23.5684 22.3372 23.6554C22.1272 23.7425 21.896 23.7653 21.6731 23.721C21.45 23.6768 21.2452 23.5673 21.0844 23.4065C20.9235 23.2458 20.814 23.0409 20.7696 22.818C20.7252 22.5949 20.748 22.3638 20.8349 22.1537C20.922 21.9436 21.0693 21.7641 21.2584 21.6377C21.4475 21.5114 21.6697 21.444 21.8971 21.444C22.2019 21.444 22.4941 21.565 22.7097 21.7805C22.9253 21.9961 23.0464 22.2884 23.0464 22.5932" fill="white"/>
<path d="M27.4111 15.5864C27.4111 21.803 22.4568 31.5431 16.3451 31.5431C10.2333 31.5431 5.27956 21.803 5.27956 15.5864C5.27956 9.36994 10.2339 6.87878 16.3451 6.87878C22.4563 6.87878 27.4111 9.3711 27.4111 15.5864Z" fill="white"/>
<path d="M16.3449 32.0004C9.9842 32.0004 4.82208 22.0688 4.82208 15.5871C4.82208 9.76314 9.02207 6.42078 16.3449 6.42078C23.6679 6.42078 27.8684 9.76314 27.8684 15.5866C27.8684 22.0682 22.7059 32.0004 16.3449 32.0004ZM16.3449 7.33694C13.1552 7.33694 5.73669 8.14084 5.73669 15.5866C5.73669 21.5654 10.5916 31.0856 16.3449 31.0856C22.0983 31.0856 26.9536 21.5654 26.9536 15.5866C26.9536 8.14026 19.5347 7.33635 16.3449 7.33635V7.33694Z" fill="#144A8F"/>
<path d="M16.3449 32.0004C9.9842 32.0004 4.82208 22.0688 4.82208 15.5871C4.82208 9.76314 9.02207 6.42078 16.3449 6.42078C23.6679 6.42078 27.8684 9.76314 27.8684 15.5866C27.8684 22.0682 22.7059 32.0004 16.3449 32.0004ZM16.3449 7.33694C13.1552 7.33694 5.73669 8.14084 5.73669 15.5866C5.73669 21.5654 10.5916 31.0856 16.3449 31.0856C22.0983 31.0856 26.9536 21.5654 26.9536 15.5866C26.9536 8.14026 19.5347 7.33635 16.3449 7.33635V7.33694Z" fill="#144A8F"/>
<path d="M12.9266 16.9246C12.9266 16.9246 13.2823 19.8275 18.43 19.4524C18.1243 19.056 17.7993 18.632 17.7856 18.0546C18.8071 18.1727 20.0979 18.2004 20.7476 17.4388C20.1408 17.332 19.4613 16.8644 19.1788 16.3376" fill="white"/>
<path d="M17.5369 19.9434C12.8923 19.9434 12.4885 17.1078 12.4729 16.98C12.4653 16.9204 12.4695 16.8598 12.4853 16.8018C12.501 16.7438 12.5281 16.6896 12.5649 16.642C12.6017 16.5944 12.6474 16.5546 12.6996 16.5248C12.7518 16.4949 12.8093 16.4756 12.8689 16.468C12.9286 16.4604 12.9891 16.4646 13.0471 16.4804C13.1051 16.4962 13.1594 16.5232 13.207 16.56C13.2545 16.5968 13.2943 16.6425 13.3242 16.6948C13.354 16.7469 13.3733 16.8045 13.3809 16.8641C13.396 16.9665 13.7503 19.0278 17.5391 19.0278H17.5917C17.4457 18.7516 17.3379 18.4352 17.3293 18.0644C17.3279 17.999 17.3404 17.9341 17.3661 17.874C17.3919 17.8138 17.4301 17.76 17.4784 17.7158C17.5267 17.6717 17.5839 17.6385 17.6461 17.6184C17.7083 17.5982 17.7741 17.5917 17.8391 17.5992C18.6632 17.6957 19.2983 17.6733 19.756 17.5333C19.34 17.2821 18.9797 16.9314 18.7767 16.5532C18.7193 16.4464 18.7068 16.321 18.7419 16.2049C18.7769 16.0888 18.8567 15.9913 18.9635 15.934C19.0704 15.8766 19.1957 15.8641 19.3117 15.8992C19.4279 15.9342 19.5253 16.014 19.5827 16.1208C19.794 16.5152 20.3527 16.9038 20.8277 16.9876C20.9071 17.0014 20.9813 17.0362 21.0429 17.0881C21.1045 17.1401 21.1513 17.2073 21.1787 17.2832C21.2059 17.359 21.2127 17.4406 21.1981 17.52C21.1837 17.5993 21.1485 17.6733 21.0963 17.7346C20.4424 18.5012 19.3403 18.6152 18.3813 18.5638C18.4855 18.7736 18.6369 18.9696 18.7931 19.1725C18.8433 19.238 18.8751 19.3158 18.8848 19.3977C18.8944 19.4797 18.8819 19.5628 18.8481 19.6381C18.8145 19.7134 18.7611 19.7782 18.6936 19.8257C18.626 19.8732 18.5469 19.9014 18.4647 19.9077C18.1372 19.9324 17.8284 19.9434 17.5369 19.9434Z" fill="#144A8F"/>
<path d="M19.7636 12.8807C19.7636 13.7843 18.2335 15.449 16.3451 15.449C14.4568 15.449 12.9266 13.7843 12.9266 12.8807C12.9266 11.9771 14.2951 0.457886 16.1832 0.457886C18.0713 0.457886 19.7636 11.9777 19.7636 12.8807Z" fill="white"/>
<path d="M16.3452 15.9069C14.2432 15.9069 12.4688 14.0479 12.4688 12.8808C12.4688 12.7519 13.6241 0 16.1829 0C18.7731 0 20.2208 12.7513 20.2208 12.8808C20.2209 14.0479 18.4473 15.9069 16.3452 15.9069ZM16.1835 0.914424C15.0108 0.914424 13.3841 11.0799 13.3841 12.8806C13.3841 13.4928 14.6655 14.9915 16.3452 14.9915C18.0248 14.9915 19.3064 13.4928 19.3064 12.8806C19.3064 12.4727 18.8853 9.38361 18.2347 6.42763C17.0535 1.06473 16.1917 0.914424 16.1835 0.914424Z" fill="#144A8F"/>
<path d="M18.4 29.0835C18.4479 29.3269 18.0503 29.0712 17.6379 29.1523C17.2255 29.2332 16.9545 29.622 16.9067 29.3785C16.8588 29.1351 17.106 28.6307 17.5185 28.5491C17.9309 28.4675 18.352 28.8399 18.4 29.0835Z" fill="#144A8F"/>
<path d="M14.328 29.0835C14.2801 29.3269 14.6777 29.0712 15.0901 29.1523C15.5027 29.2332 15.7736 29.622 15.8215 29.3785C15.8693 29.1351 15.6221 28.6307 15.2096 28.5491C14.7971 28.4675 14.3759 28.8399 14.328 29.0835Z" fill="#144A8F"/>
<path d="M9.97807 9.14479C9.97807 9.14479 7.27536 7.80631 4.77649 7.96628C3.88949 10.5345 4.90651 13.1034 6.83273 14.1044" fill="white"/>
<path d="M6.83235 14.5618C6.75908 14.5618 6.68691 14.5441 6.62195 14.5102C4.40341 13.3576 3.42445 10.4801 4.34429 7.81724C4.37367 7.73198 4.4276 7.65732 4.49932 7.60265C4.57103 7.54798 4.65732 7.51577 4.74731 7.51005C7.34124 7.33772 10.066 8.67697 10.1811 8.73397C10.2875 8.78914 10.3679 8.88385 10.4052 8.99773C10.4425 9.11161 10.4336 9.23557 10.3805 9.34296C10.3273 9.45036 10.2342 9.53262 10.121 9.57206C10.0079 9.6115 9.88379 9.60498 9.7754 9.5539C9.75067 9.54173 7.37255 8.38562 5.11633 8.41093C4.50736 10.561 5.30451 12.7948 7.04371 13.6988C7.13457 13.7461 7.20693 13.8225 7.24923 13.9157C7.29151 14.009 7.30125 14.1137 7.27692 14.2132C7.25259 14.3126 7.19556 14.4012 7.11499 14.4644C7.03441 14.5276 6.93495 14.5618 6.83255 14.5618H6.83235Z" fill="#144A8F"/>
<path d="M8.9798 10.7213C8.9798 10.7213 7.63666 10.0565 6.03386 9.78406L8.9798 10.7213Z" fill="white"/>
<path d="M8.9792 11.1785C8.90916 11.1785 8.84007 11.1623 8.77731 11.1312C8.76436 11.1248 7.47029 10.4921 5.95655 10.2351C5.89636 10.2261 5.83857 10.2052 5.78657 10.1736C5.73457 10.142 5.6894 10.1004 5.65369 10.0511C5.618 10.0018 5.59249 9.94589 5.57865 9.88664C5.56483 9.82737 5.56296 9.76596 5.57317 9.70597C5.58337 9.64597 5.60544 9.58863 5.63808 9.53728C5.67073 9.48592 5.71329 9.44159 5.76328 9.40689C5.81327 9.37219 5.86967 9.3478 5.9292 9.33516C5.98872 9.32253 6.05017 9.32189 6.10995 9.33331C7.75971 9.61383 9.12391 10.2831 9.18187 10.3115C9.27433 10.3573 9.34859 10.433 9.39256 10.5263C9.43655 10.6197 9.44765 10.7251 9.42411 10.8256C9.40056 10.926 9.34373 11.0156 9.26285 11.0797C9.18197 11.1437 9.0818 11.1786 8.97863 11.1785H8.9792Z" fill="#144A8F"/>
<path d="M22.7124 9.1448C22.7124 9.1448 25.4149 7.80726 27.914 7.96742C28.8009 10.5357 27.7839 13.1047 25.8577 14.1057" fill="white"/>
<path d="M25.8577 14.5619C25.7553 14.5619 25.6559 14.5276 25.5753 14.4644C25.4947 14.4012 25.4377 14.3127 25.4133 14.2132C25.3891 14.1137 25.3988 14.0091 25.4411 13.9157C25.4833 13.8224 25.5557 13.7461 25.6465 13.6988C27.3853 12.7949 28.1833 10.5611 27.5741 8.41096C25.3065 8.37425 22.9396 9.54157 22.9148 9.55393C22.8061 9.60773 22.6804 9.61613 22.5655 9.57729C22.4505 9.53845 22.3559 9.45556 22.302 9.34682C22.2481 9.23809 22.2397 9.11244 22.2787 8.99752C22.3175 8.88258 22.4004 8.7878 22.5091 8.734C22.6239 8.67738 25.3516 7.34296 27.9429 7.51008C28.0329 7.51585 28.1192 7.54809 28.1909 7.60274C28.2627 7.6574 28.3165 7.73202 28.346 7.81726C29.2655 10.4801 28.2863 13.3576 26.0681 14.5103C26.0032 14.5441 25.9309 14.5619 25.8577 14.5619Z" fill="#144A8F"/>
<path d="M23.7107 10.7213C23.7107 10.7213 25.0535 10.0565 26.6564 9.78406L23.7107 10.7213Z" fill="white"/>
<path d="M23.7112 11.1784C23.608 11.1785 23.5079 11.1437 23.4269 11.0796C23.346 11.0156 23.2892 10.926 23.2656 10.8256C23.242 10.7251 23.2531 10.6196 23.2971 10.5262C23.3411 10.4329 23.4153 10.3571 23.5077 10.3113C23.5657 10.2829 24.93 9.61366 26.5797 9.33312C26.6993 9.3128 26.8221 9.34083 26.9211 9.41103C27.02 9.48123 27.0871 9.58786 27.1073 9.70746C27.1277 9.82704 27.0996 9.94982 27.0295 10.0488C26.9592 10.1477 26.8527 10.2147 26.7331 10.235C25.2199 10.492 23.9257 11.1247 23.9121 11.1311C23.8497 11.162 23.7809 11.1782 23.7112 11.1784Z" fill="#144A8F"/>
<path d="M25.3979 25.0298C24.2337 27.5486 21.9415 28.967 20.2781 28.1984C18.6149 27.4296 18.2095 24.7638 19.3735 22.2453C20.5375 19.7266 22.8303 18.308 24.4932 19.0768C26.156 19.8454 26.5604 22.511 25.3973 25.0298" fill="white"/>
<path d="M21.2537 28.8664C20.8507 28.8683 20.452 28.7818 20.0859 28.6132C19.1373 28.175 18.5075 27.2279 18.3129 25.947C18.1287 24.7355 18.358 23.3523 18.9583 22.0536C20.2269 19.3102 22.7979 17.7888 24.6856 18.6619C26.5735 19.5351 27.0815 22.4784 25.8135 25.2222C25.2129 26.5207 24.3085 27.5908 23.266 28.236C22.5893 28.6542 21.9027 28.8664 21.2537 28.8664ZM23.5319 19.3282C22.218 19.3282 20.65 20.5734 19.7885 22.4371C19.2625 23.5751 19.0595 24.7727 19.2172 25.8095C19.3643 26.7768 19.8089 27.4782 20.4695 27.783C21.1301 28.0879 21.9521 27.9734 22.7847 27.4583C23.6764 26.9059 24.4571 25.9756 24.9831 24.8376C26.0215 22.591 25.7099 20.1428 24.302 19.4919C24.0603 19.3818 23.7975 19.3259 23.5319 19.3282Z" fill="#144A8F"/>
<path d="M7.29236 25.0298C8.4566 27.5486 10.7489 28.967 12.4122 28.1984C14.0755 27.4296 14.4812 24.7638 13.317 22.2453C12.1527 19.7266 9.86001 18.308 8.19713 19.0768C6.53424 19.8454 6.12987 22.511 7.29295 25.0298" fill="white"/>
<path d="M11.4367 28.8664C10.7879 28.8664 10.1009 28.6538 9.42434 28.2356C8.3822 27.5904 7.47744 26.5202 6.87736 25.2217C5.60899 22.4782 6.11479 19.5354 8.00469 18.6617C9.89459 17.7878 12.464 19.3102 13.7324 22.0533C14.3324 23.352 14.5617 24.735 14.3776 25.9466C14.1827 27.2278 13.5531 28.1749 12.6041 28.6128C12.2381 28.7816 11.8397 28.8681 11.4367 28.8664ZM9.15868 19.3282C8.89304 19.326 8.63013 19.3818 8.38839 19.492C6.98091 20.1429 6.6689 22.5909 7.70755 24.8377C8.23324 25.9756 9.01418 26.9049 9.9056 27.4582C10.7381 27.9722 11.5598 28.0884 12.2203 27.7829C12.8809 27.4776 13.3262 26.7768 13.4735 25.8094C13.6309 24.7728 13.428 23.575 12.902 22.4372C12.0405 20.574 10.4719 19.3282 9.15868 19.3282Z" fill="#144A8F"/>
<path d="M7.29236 25.0298C8.4566 27.5486 10.7489 28.967 12.4122 28.1984C14.0755 27.4296 14.4812 24.7638 13.317 22.2453C12.1527 19.7266 9.86001 18.308 8.19713 19.0768C6.53424 19.8454 6.12987 22.511 7.29295 25.0298" fill="white"/>
<path d="M11.4367 28.8664C10.7879 28.8664 10.1009 28.6538 9.42434 28.2356C8.3822 27.5904 7.47744 26.5202 6.87736 25.2217C5.60899 22.4782 6.11479 19.5354 8.00469 18.6617C9.89459 17.7878 12.464 19.3102 13.7324 22.0533C14.3324 23.352 14.5617 24.735 14.3776 25.9466C14.1827 27.2278 13.5531 28.1749 12.6041 28.6128C12.2381 28.7816 11.8397 28.8681 11.4367 28.8664ZM9.15868 19.3282C8.89304 19.326 8.63013 19.3818 8.38839 19.492C6.98091 20.1429 6.6689 22.5909 7.70755 24.8377C8.23324 25.9756 9.01418 26.9049 9.9056 27.4582C10.7381 27.9722 11.5598 28.0884 12.2203 27.7829C12.8809 27.4776 13.3262 26.7768 13.4735 25.8094C13.6309 24.7728 13.428 23.575 12.902 22.4372C12.0405 20.574 10.4719 19.3282 9.15868 19.3282Z" fill="#144A8F"/>
<path d="M13.4789 23.0478C13.4096 23.21 13.3039 23.3542 13.1699 23.469C13.0359 23.5838 12.8772 23.6662 12.7062 23.7096C12.5352 23.7531 12.3564 23.7567 12.1839 23.7199C12.0113 23.6831 11.8495 23.607 11.7111 23.4975C11.5727 23.388 11.4614 23.2482 11.3859 23.0887C11.3103 22.9292 11.2726 22.7546 11.2755 22.5782C11.2785 22.4016 11.322 22.2283 11.4029 22.0715C11.4837 21.9146 11.5996 21.7786 11.7416 21.6738C11.6956 21.6707 11.6516 21.66 11.6046 21.66C11.2145 21.66 10.8332 21.7758 10.5088 21.9924C10.1845 22.2091 9.93165 22.5172 9.78236 22.8776C9.63308 23.238 9.59401 23.6346 9.67012 24.0172C9.74623 24.3998 9.93408 24.7512 10.2099 25.0271C10.4858 25.303 10.8372 25.4908 11.2198 25.5668C11.6024 25.643 11.999 25.6039 12.3594 25.4547C12.7198 25.3054 13.0279 25.0526 13.2446 24.7282C13.4613 24.4039 13.5771 24.0226 13.5771 23.6324C13.5743 23.4336 13.5412 23.2366 13.4789 23.0478Z" fill="#144A8F"/>
<path d="M16.3435 32.0007C14.1504 32.0007 11.9447 30.8274 9.96435 28.6074C9.92924 28.5682 9.9012 28.5233 9.88147 28.4745C8.7041 27.9099 7.587 26.7575 6.87699 25.2227C5.60939 22.4793 6.115 19.5354 8.00471 18.6625C8.95332 18.2235 10.0832 18.3574 11.1848 19.0395C12.2281 19.6847 13.1319 20.755 13.7321 22.0535C14.3212 23.3287 14.5273 24.6455 14.39 25.7791C15.512 24.7315 17.278 24.7551 18.3729 25.849L20.0012 27.4683C20.0437 27.5106 20.0776 27.561 20.1008 27.6163C20.124 27.6718 20.136 27.7313 20.1363 27.7913C20.1364 27.8514 20.1248 27.9109 20.102 27.9665C20.0792 28.0221 20.0456 28.0726 20.0033 28.1151C19.9609 28.1578 19.9107 28.1917 19.8552 28.2147C19.7999 28.2379 19.7404 28.2499 19.6803 28.2502C19.6203 28.2503 19.5608 28.2387 19.5052 28.2159C19.4496 28.1931 19.3991 28.1597 19.3565 28.1173L17.7271 26.4969C17.3603 26.1311 16.8636 25.9257 16.3456 25.9257C15.8277 25.9257 15.3309 26.1311 14.9643 26.4969L13.3713 28.0837C13.3571 28.0975 13.342 28.1105 13.3261 28.1223C12.8314 28.5961 12.1731 28.8607 11.4881 28.8611C12.7233 30.0118 14.3976 31.0869 16.3433 31.0869C16.4645 31.0869 16.5808 31.135 16.6665 31.2207C16.7523 31.3065 16.8004 31.4227 16.8004 31.5439C16.8004 31.6651 16.7523 31.7814 16.6665 31.8671C16.5808 31.9529 16.4645 32.0011 16.3433 32.0011L16.3435 32.0007ZM7.70738 24.8389C8.76438 27.1242 10.7868 28.4461 12.2209 27.7842C13.6287 27.1329 13.9404 24.6845 12.9018 22.4377C12.3761 21.2999 11.5954 20.3693 10.7037 19.8174C9.87123 19.3023 9.04878 19.1878 8.3884 19.4926C6.98094 20.1431 6.66891 22.5914 7.70738 24.8389Z" fill="#144A8F"/>
<path d="M14.6364 12.3023C14.6364 12.3023 16.5528 13.9148 17.8629 13.5606C18.6551 13.3464 17.8184 15.0506 14.7467 14.6232C11.5489 14.1772 13.2065 10.9137 13.2065 10.9137L14.6364 12.3023Z" fill="#EB2126"/>
<path d="M15.0559 8.96225C15.2755 9.48138 16.9467 10.2677 18.1084 10.2012C18.1852 10.1957 18.2617 10.2162 18.3255 10.2594C18.3892 10.3026 18.4367 10.3659 18.4601 10.4393C18.7387 11.3402 18.7473 12.3765 18.514 12.7929C18.2911 13.1914 13.1852 12.2519 13.1638 10.1023C13.1423 7.95276 14.0023 7.90833 14.0023 7.90833L15.0559 8.96225Z" fill="#EB2126"/>
<path d="M15.0899 5.36757C15.2621 5.86313 16.5688 6.65119 17.4483 6.73041C17.5519 6.73987 17.6505 6.77934 17.7321 6.84399C17.8137 6.90863 17.8747 6.99565 17.9075 7.09439C18.1355 7.76789 18.2043 8.49471 18.3132 9.14561C18.3815 9.55306 13.5539 8.65719 13.5356 6.50687C13.5175 4.35655 14.224 4.31482 14.224 4.31482L15.0899 5.36757Z" fill="#EB2126"/>
<path d="M17.9588 13.2235C16.4988 13.2235 15.1891 12.6112 14.7097 12.3577C13.8191 11.8863 12.8343 11.1338 12.7406 10.4351C12.7327 10.3756 12.7365 10.3151 12.7519 10.257C12.7673 10.199 12.794 10.1445 12.8305 10.0968C12.9041 10.0003 13.013 9.93712 13.1332 9.92101C13.2535 9.90489 13.3752 9.9372 13.4716 10.0108C13.568 10.0845 13.6312 10.1934 13.6473 10.3136C13.6787 10.4929 14.1985 11.0773 15.2592 11.6121C15.8388 11.9041 17.8575 12.7924 19.5143 11.9626C19.6225 11.9102 19.7471 11.9026 19.8609 11.9413C19.9747 11.9801 20.0687 12.062 20.1225 12.1695C20.1764 12.277 20.1857 12.4014 20.1487 12.5158C20.1115 12.6301 20.0308 12.7253 19.9241 12.7806C19.2789 13.1035 18.6041 13.2235 17.9588 13.2235ZM17.6916 9.78828C16.8099 9.78828 15.8508 9.53847 14.9235 9.04773C14.152 8.63968 13.2984 7.98299 13.2153 7.36396C13.2014 7.24509 13.2345 7.12548 13.3077 7.03079C13.3809 6.93608 13.4883 6.87383 13.6068 6.85737C13.7253 6.84092 13.8456 6.87157 13.9419 6.94276C14.038 7.01395 14.1025 7.12 14.1215 7.23817C14.1636 7.39275 14.6624 7.93719 15.6655 8.39392C16.2531 8.66171 17.7543 9.21679 19.0029 8.58984C19.1111 8.53748 19.2356 8.52983 19.3495 8.56856C19.4633 8.60728 19.5573 8.68927 19.6112 8.79677C19.6651 8.90428 19.6744 9.02867 19.6372 9.14303C19.6001 9.25739 19.5195 9.35252 19.4127 9.40787C18.904 9.66231 18.3172 9.78828 17.6916 9.78828Z" fill="#144A8F"/>
<path d="M17.4508 4.72047C17.4736 4.8148 17.4587 4.91427 17.4093 4.99783C17.36 5.08137 17.2801 5.14245 17.1865 5.16811C16.9689 5.22704 16.6552 5.35976 16.082 5.37348C14.7829 5.4044 14.2571 3.82673 14.2571 3.82673C14.2571 3.82673 14.7643 0.79814 15.9047 0.828473C16.2911 0.838905 17.1579 3.50061 17.4503 4.72047" fill="#EB2126"/>
<path d="M16.3452 15.9069C14.2432 15.9069 12.4688 14.0479 12.4688 12.8808C12.4688 12.8019 12.9014 7.99932 13.8225 4.28212C13.8271 4.23973 13.8375 4.19817 13.8535 4.15867C14.4348 1.85609 15.2059 0 16.1829 0C18.7731 0 20.2208 12.7513 20.2208 12.8808C20.2209 14.0479 18.4473 15.9069 16.3452 15.9069ZM14.5277 5.33875C13.8832 8.31945 13.3841 11.8829 13.3841 12.8802C13.3841 13.4924 14.6655 14.9911 16.3452 14.9911C18.0248 14.9911 19.3064 13.4924 19.3064 12.8802C19.3064 12.4723 18.8853 9.38323 18.2347 6.42724C18.2205 6.36271 18.2064 6.29857 18.1921 6.23577C17.2988 6.47013 16.2169 6.30475 15.1883 5.76069C14.9572 5.63788 14.7363 5.49679 14.5277 5.33875ZM14.7627 4.30685C14.8951 4.48556 15.3483 4.87757 16.0747 5.16177C16.5015 5.32908 17.2677 5.54817 17.9843 5.34705C16.9335 1.04348 16.1912 0.914424 16.1835 0.914424C15.7373 0.914424 15.2256 2.38565 14.7627 4.30743V4.30685Z" fill="#144A8F"/>
<path d="M22.9569 23.0378C22.8891 23.2014 22.7843 23.347 22.6508 23.4634C22.5173 23.5798 22.3588 23.6636 22.1875 23.7086C22.0161 23.7535 21.8368 23.7583 21.6633 23.7223C21.49 23.6864 21.3272 23.611 21.1877 23.5018C21.0484 23.3926 20.9361 23.2526 20.8597 23.0928C20.7833 22.9331 20.7449 22.7578 20.7476 22.5807C20.7501 22.4036 20.7937 22.2295 20.8747 22.072C20.9557 21.9146 21.0721 21.778 21.2147 21.673C21.1713 21.67 21.13 21.66 21.086 21.66C20.6959 21.66 20.3145 21.7758 19.9901 21.9924C19.6659 22.2091 19.4131 22.5172 19.2637 22.8776C19.1144 23.238 19.0755 23.6346 19.1515 24.0172C19.2276 24.3998 19.4155 24.7512 19.6913 25.0271C19.9672 25.303 20.3185 25.4908 20.7012 25.5668C21.0837 25.643 21.4804 25.6039 21.8408 25.4547C22.2012 25.3054 22.5092 25.0526 22.726 24.7282C22.9427 24.4039 23.0584 24.0226 23.0584 23.6324C23.0556 23.4302 23.0213 23.2295 22.9569 23.0378Z" fill="#144A8F"/>
</g>
<defs>
<clipPath id="clip0_1746_15168">
<rect width="32" height="32" fill="white"/>
</clipPath>
</defs>
</svg>